Coordinates
version=1
nRows=5
nColumns=40
inDegrees=yes

Units are S.I. units (second, meters, Newtons, ...)
If the header above contains a line with 'inDegrees', this indicates whether rotational values are in degrees (yes) or radians (no).

endheader
time	pelvis_tilt	pelvis_list	pelvis_rotation	pelvis_tx	pelvis_ty	pelvis_tz	hip_flexion_r	hip_adduction_r	hip_rotation_r	knee_angle_r	knee_angle_r_beta	ankle_angle_r	subtalar_angle_r	mtp_angle_r	hip_flexion_l	hip_adduction_l	hip_rotation_l	knee_angle_l	knee_angle_l_beta	ankle_angle_l	subtalar_angle_l	mtp_angle_l	lumbar_extension	lumbar_bending	lumbar_rotation	arm_flex_r	arm_add_r	arm_rot_r	elbow_flex_r	pro_sup_r	wrist_flex_r	wrist_dev_r	arm_flex_l	arm_add_l	arm_rot_l	elbow_flex_l	pro_sup_l	wrist_flex_l	wrist_dev_l
      0.98500000	      2.48215348	      6.53393501	     -2.44271342	      0.63431724	      0.93939379	      0.21059243	     20.00837603	    -17.89329250	    -11.64129230	     67.89070111	      1.18491627	     -5.90011670	    -17.59320861	      0.00000000	      0.77873466	      6.91622700	    -19.47183513	      9.66058285	      0.16860898	      3.15819023	      5.43794258	      0.00000000	     -3.03098771	     -8.57871651	     -1.02614158	     36.33037501	    -14.49476187	     36.33037501	     76.89319843	     44.90013594	      0.00000000	      0.00000000	     36.33037501	    -14.49476187	     36.33037501	     76.89319843	     44.90013594	      0.00000000	      0.00000000
      0.99000000	      2.36322168	      6.37806480	     -2.19896639	      0.64048655	      0.93956321	      0.21016019	     20.74457063	    -17.49127862	    -11.76190101	     67.18297241	      1.17256407	     -5.30288569	    -17.31565213	      0.00000000	      0.26819320	      6.81930219	    -19.36096142	      9.27048747	      0.16180053	      3.38393532	      5.90946831	      0.00000000	     -2.98623812	     -8.40984670	     -1.20264950	     36.33723541	    -14.49541984	     36.33723541	     76.88836706	     44.90084175	      0.00000000	      0.00000000	     36.33723541	    -14.49541984	     36.33723541	     76.88836706	     44.90084175	      0.00000000	      0.00000000
      0.99500000	      2.66846959	      5.75379095	     -1.63866743	      0.64686904	      0.94078831	      0.20872195	     20.53222667	    -16.76160804	    -12.55084508	     65.91587998	      1.15044914	     -4.94896141	    -17.16324714	      0.00000000	     -0.68980060	      6.23082117	    -19.00120630	      9.04373977	      0.15784304	      3.71714895	      6.52601871	      0.00000000	     -3.47687066	     -7.59320702	     -1.97181633	     36.37999809	    -14.49951407	     36.37999809	     76.85843527	     44.90514537	      0.00000000	      0.00000000	     36.37999809	    -14.49951407	     36.37999809	     76.85843527	     44.90514537	      0.00000000	      0.00000000
      1.00000000	      2.58961678	      5.83492713	     -1.42497694	      0.65282948	      0.94078671	      0.20836372	     21.26459084	    -16.66085715	    -12.61352133	     65.10169990	      1.13623901	     -4.69184582	    -17.03388016	      0.00000000	     -1.06990428	      6.34621764	    -19.03896077	      8.96102005	      0.15639930	      3.89001451	      6.62753242	      0.00000000	     -3.49386956	     -7.68361772	     -1.96179495	     36.38139948	    -14.49964798	     36.38139948	     76.85746084	     44.90528329	      0.00000000	      0.00000000	     36.38139948	    -14.49964798	     36.38139948	     76.85746084	     44.90528329	      0.00000000	      0.00000000
      1.00500000	      2.92437815	      5.06624822	     -0.96140277	      0.65922785	      0.94191393	      0.20716668	     20.95464536	    -15.70348503	    -13.28609940	     63.65177970	      1.11093313	     -3.91216141	    -16.26237717	      0.00000000	     -2.15128906	      5.59989706	    -18.58440110	      8.49624931	      0.14828752	      4.25307634	      7.37822255	      0.00000000	     -3.99303314	     -6.69403664	     -2.57866122	     36.42165641	    -14.50348990	     36.42165641	     76.82959747	     44.90917531	      0.00000000	      0.00000000	     36.42165641	    -14.50348990	     36.42165641	     76.82959747	     44.90917531	      0.00000000	      0.00000000
